<svg width="61" height="61" viewBox="0 0 61 61" fill="none" xmlns="http://www.w3.org/2000/svg">
<path d="M13.6387 28.1724H51.1387C51.636 28.1724 52.1129 28.3699 52.4645 28.7215C52.8161 29.0732 53.0137 29.5501 53.0137 30.0474C53.0137 30.5446 52.8161 31.0216 52.4645 31.3732C52.1129 31.7248 51.636 31.9224 51.1387 31.9224H13.6387C13.1414 31.9224 12.6645 31.7248 12.3128 31.3732C11.9612 31.0216 11.7637 30.5446 11.7637 30.0474C11.7637 29.5501 11.9612 29.0732 12.3128 28.7215C12.6645 28.3699 13.1414 28.1724 13.6387 28.1724Z" fill="black"/>
<path d="M14.4149 30.0473L29.9661 45.5948C30.3182 45.9469 30.516 46.4244 30.516 46.9223C30.516 47.4202 30.3182 47.8977 29.9661 48.2498C29.614 48.6019 29.1365 48.7997 28.6386 48.7997C28.1407 48.7997 27.6632 48.6019 27.3111 48.2498L10.4361 31.3748C10.2615 31.2006 10.123 30.9937 10.0284 30.7659C9.93391 30.5381 9.88525 30.2939 9.88525 30.0473C9.88525 29.8007 9.93391 29.5565 10.0284 29.3287C10.123 29.1009 10.2615 28.894 10.4361 28.7198L27.3111 11.8448C27.6632 11.4927 28.1407 11.2949 28.6386 11.2949C29.1365 11.2949 29.614 11.4927 29.9661 11.8448C30.3182 12.1969 30.516 12.6744 30.516 13.1723C30.516 13.6702 30.3182 14.1477 29.9661 14.4998L14.4149 30.0473Z" fill="black"/>
</svg>
