<svg width="176" height="11" viewBox="0 0 176 11" fill="none" xmlns="http://www.w3.org/2000/svg">
<rect width="12.8032" height="17.787" transform="matrix(-0.511706 0.859161 -1 0 166.645 0)" fill="#B60000"/>
<rect width="12.8032" height="17.787" transform="matrix(-0.511706 0.859161 -1 0 77.7102 0)" fill="#B60000"/>
<rect width="12.8032" height="17.787" transform="matrix(-0.511706 0.859161 -1 0 99.6021 0)" fill="#7E9C36"/>
<rect width="12.8032" height="17.787" transform="matrix(-0.511706 0.859161 -1 0 33.2429 0)" fill="#B60000"/>
<rect x="166.645" width="11" height="6.58064" transform="rotate(90 166.645 0)" fill="#B60000"/>
<rect x="175.548" width="11" height="18" rx="5.5" transform="rotate(90 175.548 0)" fill="#B60000"/>
<rect width="11" height="6.58064" transform="matrix(0 1 1 0 8.90332 0)" fill="#B60000"/>
<rect width="11" height="18" rx="5.5" transform="matrix(0 1 1 0 0 0)" fill="#B60000"/>
<rect width="12.8032" height="17.787" transform="matrix(-0.511706 0.859161 -1 0 55.1345 0)" fill="#7E9C36"/>
<rect width="12.8032" height="17.787" transform="matrix(-0.511706 0.859161 -1 0 122.178 0)" fill="#B60000"/>
<rect width="12.8032" height="17.787" transform="matrix(-0.511706 0.859161 -1 0 144.754 0)" fill="#7E9C36"/>
</svg>
