<svg width="51" height="54" viewBox="0 0 51 54" fill="none" xmlns="http://www.w3.org/2000/svg">
<path d="M25.2361 2V42M25.2361 42V52M25.2361 42L32.7361 49.5M25.2361 42L17.7361 49.5M32.7361 4.5L25.2361 12L17.7361 4.5" stroke="#1C274C" stroke-width="3.75" stroke-linecap="round"/>
<path d="M3.58541 14.5011L12.2457 19.5011M12.2457 19.5011L38.2265 34.501M12.2457 19.5011L9.50049 9.25586M12.2457 19.5011L2.00049 22.2463M38.2265 34.501L46.8867 39.501M38.2265 34.501L48.4717 31.7558M38.2265 34.501L40.9717 44.7463" stroke="#1C274C" stroke-width="3.75" stroke-linecap="round"/>
<path d="M46.8861 14.5011L38.2258 19.5011M38.2258 19.5011L12.2452 34.501M38.2258 19.5011L40.9711 9.25586M38.2258 19.5011L48.4711 22.2463M12.2452 34.501L3.58493 39.501M12.2452 34.501L2 31.7558M12.2452 34.501L9.5 44.7463" stroke="#1C274C" stroke-width="3.75" stroke-linecap="round"/>
</svg>
